<svg width="129" height="51" viewBox="0 0 129 51" fill="none" xmlns="http://www.w3.org/2000/svg">
<path d="M25.4429 38.9102H4.24684C3.72012 38.9102 3.29321 39.3317 3.29321 39.852V49.0695C3.29321 49.5897 3.72012 50.0113 4.24684 50.0113H25.4429C25.9696 50.0113 26.3965 49.5897 26.3965 49.0695V39.852C26.3965 39.3317 25.969 38.9102 25.4429 38.9102ZM19.1661 42.4624C19.1661 42.5675 19.0792 42.6534 18.9729 42.6534H16.0754C15.9685 42.6534 15.8822 42.7388 15.8822 42.8445V47.785C15.8822 47.89 15.7959 47.9747 15.6897 47.9747H14.0001C13.8938 47.9747 13.8075 47.8894 13.8075 47.785V42.8445C13.8075 42.7388 13.7213 42.6534 13.6144 42.6534H10.7168C10.6099 42.6534 10.5236 42.5681 10.5236 42.4624V41.1371C10.5236 41.0314 10.6105 40.9461 10.7168 40.9461H18.9723C19.0792 40.9461 19.1655 41.0314 19.1655 41.1371V42.4624H19.1661Z" fill="white"/>
<path d="M50.2162 38.9102H29.0202C28.4934 38.9102 28.0665 39.3317 28.0665 39.852V49.0695C28.0665 49.5897 28.4934 50.0113 29.0202 50.0113H50.2162C50.7429 50.0113 51.1698 49.5897 51.1698 49.0695V39.852C51.1698 39.3317 50.7429 38.9102 50.2162 38.9102ZM44.1275 46.1305C44.1275 46.2999 44.0508 46.461 43.9182 46.5693L42.3554 47.8448C42.2524 47.9289 42.1223 47.9754 41.9884 47.9754H37.2383C37.1037 47.9754 36.9737 47.9289 36.8706 47.8442L35.3169 46.5699C35.1849 46.4616 35.1089 46.3018 35.1089 46.1324V42.7916C35.1089 42.6222 35.1855 42.4611 35.3182 42.3528L36.8809 41.0773C36.984 40.9932 37.114 40.9467 37.248 40.9467H41.9981C42.1326 40.9467 42.2627 40.9932 42.3657 41.0779L43.9195 42.3522C44.0508 42.4605 44.1275 42.6203 44.1275 42.7897V46.1305Z" fill="white"/>
<path d="M41.3385 42.717C41.2876 42.6756 41.2239 42.6533 41.1582 42.6533H38.0681C38.0018 42.6533 37.9374 42.6762 37.8865 42.7183L37.2851 43.2118C37.2201 43.2653 37.1827 43.3443 37.1827 43.4277V45.4923C37.1827 45.5764 37.2207 45.656 37.2864 45.7095L37.8968 46.2043C37.9477 46.2457 38.0114 46.2679 38.0771 46.2679H41.1582C41.2239 46.2679 41.2876 46.2457 41.3385 46.2043L41.9489 45.7095C42.0146 45.656 42.0532 45.5764 42.0532 45.4923V43.4283C42.0532 43.3443 42.0152 43.2647 41.9489 43.2112L41.3385 42.7164V42.717Z" fill="white"/>
<path d="M65.8735 42.6792C65.8219 42.6372 65.7569 42.6143 65.6899 42.6143H62.6031C62.4949 42.6143 62.408 42.7002 62.408 42.8072V44.2993C62.408 44.4057 62.4955 44.4923 62.6031 44.4923H65.6899C65.7569 44.4923 65.8213 44.4693 65.8735 44.4273L66.3036 44.0771C66.3474 44.0414 66.3725 43.9879 66.3725 43.9319V43.1753C66.3725 43.1193 66.3474 43.0658 66.3036 43.0301L65.8735 42.6799V42.6792Z" fill="white"/>
<path d="M74.9888 38.9102H53.7927C53.266 38.9102 52.8391 39.3317 52.8391 39.852V49.0695C52.8391 49.5897 53.266 50.0113 53.7927 50.0113H74.9888C75.5155 50.0113 75.9424 49.5897 75.9424 49.0695V39.852C75.9424 39.3317 75.5155 38.9102 74.9888 38.9102ZM68.4474 44.527C68.4474 44.6951 68.3714 44.8543 68.2407 44.9613L66.9387 46.0273C66.8363 46.1114 66.7069 46.1572 66.5736 46.1572H62.4082V47.7818C62.4082 47.8881 62.3206 47.9747 62.2131 47.9747H60.5293C60.4217 47.9747 60.3342 47.8881 60.3342 47.7818V41.1327C60.3342 41.0302 60.4185 40.9467 60.5228 40.9467H66.5639C66.6972 40.9467 66.8267 40.9926 66.929 41.0766L68.2413 42.1529C68.372 42.2599 68.448 42.4191 68.448 42.5872V44.527H68.4474Z" fill="white"/>
<path d="M99.7617 38.9102H78.5657C78.039 38.9102 77.6121 39.3317 77.6121 39.852V49.0695C77.6121 49.5897 78.039 50.0113 78.5657 50.0113H99.7617C100.288 50.0113 100.715 49.5897 100.715 49.0695V39.852C100.715 39.3317 100.288 38.9102 99.7617 38.9102ZM92.0259 42.4152C92.0259 42.5191 91.9409 42.6031 91.8359 42.6031H90.3858C90.2809 42.6031 90.1959 42.6872 90.1959 42.791V46.1904C90.1959 46.2942 90.2809 46.3782 90.3858 46.3782H91.8359C91.9409 46.3782 92.0259 46.4623 92.0259 46.5661V47.8168C92.0259 47.9206 91.9409 48.0047 91.8359 48.0047H86.4922C86.3872 48.0047 86.3022 47.9206 86.3022 47.8168V46.5661C86.3022 46.4623 86.3872 46.3782 86.4922 46.3782H87.9319C88.0369 46.3782 88.1219 46.2942 88.1219 46.1904V42.791C88.1219 42.6872 88.0369 42.6031 87.9319 42.6031H86.4922C86.3872 42.6031 86.3022 42.5191 86.3022 42.4152V41.1645C86.3022 41.0607 86.3872 40.9767 86.4922 40.9767H91.8359C91.9409 40.9767 92.0259 41.0607 92.0259 41.1645V42.4152Z" fill="white"/>
<path d="M114.053 42.644L113.913 42.4873L113.769 42.644L112.643 44.7512C112.577 44.8748 112.668 45.0238 112.81 45.0238H115.016C115.158 45.0238 115.248 44.8748 115.182 44.7512L114.053 42.6446L114.053 42.644Z" fill="white"/>
<path d="M124.535 38.9102H103.339C102.812 38.9102 102.385 39.3317 102.385 39.852V49.0695C102.385 49.5897 102.813 50.0113 103.339 50.0113H124.535C125.062 50.0113 125.488 49.5897 125.488 49.0695V39.852C125.488 39.3317 125.062 38.9102 124.535 38.9102ZM118.924 47.7812C118.924 47.8881 118.836 47.9747 118.727 47.9747H117.085C116.977 47.9747 116.879 47.9162 116.829 47.8225L116.318 46.8699C116.268 46.7775 116.171 46.7196 116.066 46.7196H111.764C111.658 46.7196 111.561 46.7775 111.511 46.8699L111.003 47.8219C110.953 47.9155 110.854 47.9747 110.747 47.9747H109.141C109.035 47.9747 108.95 47.89 108.95 47.7856V47.4793C108.95 47.4156 108.966 47.3532 108.997 47.2978L112.496 41.0951C112.547 41.004 112.644 40.9474 112.75 40.9474H115.122C115.228 40.9474 115.326 41.004 115.377 41.0951L118.875 47.2972C118.906 47.3532 118.923 47.4169 118.923 47.4812V47.7818L118.924 47.7812Z" fill="white"/>
<path d="M30.9429 29.8248C30.6647 28.6938 30.8572 27.5284 31.4857 26.5432L39.7843 13.5271V3.92761C39.7843 2.06808 38.2576 0.560706 36.3748 0.560706H36.3594C34.6189 0.560706 33.1572 1.85538 32.9699 3.56462L32.7683 4.85419L31.4477 13.5303C31.2056 15.1147 29.827 16.2859 28.205 16.2859H28.1889C26.5637 16.2859 25.1838 15.1103 24.9449 13.5227L23.4497 3.57226C23.2656 1.85983 21.8026 0.560706 20.0589 0.560706H19.7273C17.9836 0.560706 16.5207 1.85983 16.3365 3.57226L14.8414 13.5227C14.6025 15.1103 13.2226 16.2859 11.5974 16.2859H11.5781C9.95735 16.2859 8.57939 15.1167 8.33599 13.5341L6.80028 3.5608C6.59874 1.7573 4.98125 0.41742 3.11521 0.572806C1.32838 0.72246 0 2.28523 0 4.05561V14.106C0 15.2268 0.280743 16.3305 0.817759 17.3182L7.68694 29.9554C8.40167 31.2239 9.75645 32.0104 11.2265 32.0104C13.3037 32.0104 15.0442 30.4591 15.2554 28.4187L16.6282 19.1847C16.8478 17.7092 18.0029 16.4807 19.5032 16.3082C21.2946 16.1025 22.8825 17.3385 23.1374 19.0542L24.5296 28.4187C24.7414 30.4591 26.4819 32.0104 28.5585 32.0104C29.6222 32.0104 30.6215 31.5939 31.3659 30.8858C31.1811 30.5559 31.0362 30.2018 30.9435 29.8248H30.9429Z" fill="white"/>
<path d="M59.0899 28.6433V24.7383C58.4176 24.1894 57.9856 23.3863 57.925 22.5005L56.7055 4.64579C56.5484 2.34621 54.6141 0.560547 52.2806 0.560547C50.7564 0.560547 49.3392 1.33302 48.5272 2.60667L32.9016 27.1156C31.9325 28.6351 32.4206 30.6513 33.9988 31.5696C34.4927 31.8568 35.0342 31.9911 35.5719 31.9911C36.6955 31.9911 37.8062 31.4059 38.4443 30.4054L40.7102 26.8539C41.2666 25.9814 42.2253 25.4872 43.2176 25.4872C43.6007 25.4872 43.989 25.5611 44.3612 25.7152L58.9682 31.7612C59.3764 31.93 59.8001 32.0102 60.2167 32.0102C60.3551 32.0102 59.0905 29.973 59.0905 28.6433H59.0899Z" fill="white"/>
<path d="M120.234 1.33238C119.734 0.838203 119.055 0.560547 118.348 0.560547H109.989C109.282 0.560547 108.603 0.838203 108.103 1.33238L100.338 9.00041C99.8374 9.49459 99.556 10.1645 99.556 10.8631V21.7077C99.556 22.4063 99.8374 23.0762 100.338 23.5704L108.103 31.2384C108.603 31.7326 109.282 32.0102 109.989 32.0102H118.348C119.055 32.0102 119.734 31.7326 120.234 31.2384L127.999 23.5704C128.5 23.0762 128.78 22.4063 128.78 21.7077V10.8631C128.78 10.1645 128.499 9.49459 127.999 9.00041L120.234 1.33238H120.234ZM119.82 21.6058C119.82 22.4655 119.115 23.1622 118.244 23.1622H110.093C109.222 23.1622 108.517 22.4655 108.517 21.6058V10.9663C108.517 10.1066 109.222 9.40989 110.093 9.40989H118.244C119.115 9.40989 119.82 10.1066 119.82 10.9663V21.6058Z" fill="white"/>
<path d="M99.0732 24.3301C98.3636 23.6296 97.9728 22.6979 97.9728 21.7077V10.8631C97.9728 9.87223 98.3636 8.94119 99.0732 8.24068L100.457 6.87405V4.73686C100.457 2.43027 98.5632 0.560547 96.2278 0.560547H89.3779C87.329 0.560547 85.5873 2.03799 85.2776 4.03762L83.8101 13.5168C83.5738 15.1069 82.1926 16.2851 80.5655 16.2851C78.9383 16.2851 77.5571 15.1069 77.3208 13.5168L75.8534 4.03762C75.5436 2.03735 73.8019 0.560547 71.753 0.560547H64.9031C62.567 0.560547 60.674 2.43027 60.674 4.73686V28.6433C60.674 30.5029 62.2006 32.0102 64.0834 32.0102H64.0989C65.8394 32.0102 67.301 30.7156 67.4884 29.0063L67.6893 27.7168L69.0106 19.0406C69.2527 17.4562 70.6313 16.2851 72.2533 16.2851H72.2694C73.8946 16.2851 75.2745 17.4607 75.5134 19.0483L77.0092 28.998C77.1933 30.7105 78.6563 32.0096 80.4 32.0096H80.7316C82.4753 32.0096 83.9382 30.7105 84.1224 28.998L85.6175 19.0483C85.8558 17.4607 87.2363 16.2851 88.8615 16.2851H88.8776C90.5003 16.2851 91.8782 17.4562 92.1203 19.0406L93.441 27.7168L93.6425 29.0063C93.8305 30.7149 95.2916 32.0102 97.032 32.0102H97.0475C98.9303 32.0102 100.457 30.5029 100.457 28.6433V25.6967L99.0732 24.3301Z" fill="white"/>
</svg>
