<svg width="21" height="19" viewBox="0 0 21 19" fill="none" xmlns="http://www.w3.org/2000/svg">
<path fill-rule="evenodd" clip-rule="evenodd" d="M17.254 17.2395V17.2374L17.2725 17.1935L20.3478 1.75349V1.70447C20.3478 1.31949 20.2043 0.983528 19.8946 0.782359C19.6228 0.605697 19.3101 0.593443 19.0906 0.609782C18.8864 0.628179 18.6848 0.669281 18.4897 0.732321C18.4065 0.75903 18.3244 0.789008 18.2436 0.822184L18.2303 0.82729L1.08467 7.52512L1.07954 7.52716C1.02741 7.54489 0.976393 7.56569 0.926749 7.58945C0.80481 7.64401 0.687818 7.70892 0.577069 7.78347C0.356596 7.93461 -0.0628149 8.28997 0.00794142 8.85365C0.0663923 9.32135 0.38941 9.61749 0.607832 9.77168C0.736757 9.86166 0.875369 9.93701 1.02109 9.99634L1.0539 10.0106L1.06416 10.0137L1.07134 10.0168L4.07182 11.0226C4.06156 11.2095 4.08002 11.4004 4.13027 11.5894L5.63256 17.266C5.71463 17.5755 5.89197 17.8515 6.13967 18.0554C6.38737 18.2594 6.69299 18.3809 7.01361 18.403C7.33424 18.4251 7.65375 18.3466 7.92728 18.1785C8.20082 18.0105 8.41463 17.7614 8.53869 17.4662L10.8849 14.9684L14.9139 18.0441L14.9714 18.0687C15.3375 18.228 15.6789 18.278 15.9917 18.2361C16.3045 18.1932 16.5526 18.0625 16.7393 17.9145C16.9551 17.7402 17.1272 17.5181 17.2417 17.266L17.2499 17.2487L17.253 17.2425L17.254 17.2395ZM5.61718 11.1993C5.60054 11.1363 5.60449 11.0697 5.62847 11.0091C5.65244 10.9485 5.69518 10.8971 5.75048 10.8623L15.924 4.42894C15.924 4.42894 16.5229 4.06643 16.5013 4.42894C16.5013 4.42894 16.608 4.49226 16.287 4.78941C15.9835 5.07228 9.03604 11.7517 8.33258 12.4277C8.29346 12.4656 8.26606 12.5138 8.25362 12.5666L7.11947 16.8759L5.61718 11.1983V11.1993Z" fill="white"/>
</svg>
